<mxfile host="app.diagrams.net" agent="Mozilla/5.0 (Windows NT 10.0; Win64; x64) AppleWebKit/537.36 (KHTML, like Gecko) Chrome/141.0.0.0 Safari/537.36 Edg/141.0.0.0" version="28.2.8">
  <diagram name="Page-1" id="yFjIxf3gl0O95PRjKlth">
    <mxGraphModel dx="1017" dy="460" grid="1" gridSize="10" guides="1" tooltips="1" connect="1" arrows="1" fold="1" page="1" pageScale="1" pageWidth="850" pageHeight="1100" math="0" shadow="0">
      <root>
        <mxCell id="0" />
        <mxCell id="1" parent="0" />
        <mxCell id="d7oZRrqWwYDaokZb5h9n-1" value="Pool" style="swimlane;childLayout=stackLayout;resizeParent=1;resizeParentMax=0;horizontal=1;startSize=20;horizontalStack=0;html=1;" vertex="1" parent="1">
          <mxGeometry x="190" y="50" width="480" height="380" as="geometry" />
        </mxCell>
        <mxCell id="d7oZRrqWwYDaokZb5h9n-2" value="Lane 1" style="swimlane;startSize=20;horizontal=0;html=1;" vertex="1" parent="d7oZRrqWwYDaokZb5h9n-1">
          <mxGeometry y="20" width="480" height="120" as="geometry" />
        </mxCell>
        <mxCell id="d7oZRrqWwYDaokZb5h9n-3" value="Lane 2" style="swimlane;startSize=20;horizontal=0;html=1;" vertex="1" parent="d7oZRrqWwYDaokZb5h9n-1">
          <mxGeometry y="140" width="480" height="120" as="geometry" />
        </mxCell>
        <mxCell id="d7oZRrqWwYDaokZb5h9n-4" value="Lane 3" style="swimlane;startSize=20;horizontal=0;html=1;" vertex="1" parent="d7oZRrqWwYDaokZb5h9n-1">
          <mxGeometry y="260" width="480" height="120" as="geometry" />
        </mxCell>
      </root>
    </mxGraphModel>
  </diagram>
</mxfile>
